<svg xmlns="http://www.w3.org/2000/svg" viewBox="0 0 474.73 149.7"><defs><style>.cls-1{fill:#fff;}.cls-2{fill:#ffb41d;}.cls-3{opacity:0.17;}.cls-4{fill:#d49618;}</style></defs><title>Asset 1</title><g id="Layer_2" data-name="Layer 2"><g id="Layer_1-2" data-name="Layer 1"><path class="cls-1" d="M26.93,149s57.84,8.59,95.63-34.71S145.7,16.56,145.7,16.56s-11,16.64-17.2,17.51c0,0,.64-28-15-34.07,0,0-18.2,1.27-22.31,19.1,0,0-22.32-4.45-46.17,9.24,0,0-14-7-20,.32s-1.37,23.89-1.37,23.89-1.36,11-7.15,12.67-13.13-1.54-14.4,5S-6.81,84.06,18,100.93,54.25,120,54.25,120,37.44,143,26.93,149Z"/><path class="cls-2" d="M94.43,84.69c-26.74,29-42,26.75-42,26.75a103.13,103.13,0,0,1-15.53-7.35h0a65.29,65.29,0,0,1-7.76-5.29c-16.31-13-14-26.14-8.55-28.79,2.54-1.22,4.66-3.78,6.35-6.6v0c.52-.87,1-1.76,1.42-2.64q.28-.57.54-1.14a52.85,52.85,0,0,0,2.82-7.71,28,28,0,0,1-2.16-17.07,3.32,3.32,0,0,1,3.63-2.7c4.87.55,8.4,6.08,8.4,6.08,27.06-21,54.76-11.47,54.76-11.47A25.87,25.87,0,0,1,109.21,8.68,3.31,3.31,0,0,1,113,9l.07.06h0C132.29,26,120.43,56.53,94.43,84.69Z"/><path class="cls-1" d="M47.06,64.17S57.86,49,82.2,48.09C82.2,48.09,87,70.25,47.06,64.17Z"/><path class="cls-1" d="M36.29,73.55s-.64,3.26,4.78,2.74S70.36,74.12,72.27,75C72.27,75,70.68,70.36,36.29,73.55Z"/><path class="cls-1" d="M36.6,78.35s-1.1,3.13,4.33,3.41S70.23,83.85,72,85C72,85,71.09,80.18,36.6,78.35Z"/><path class="cls-2" d="M127.53,85.94h0a94.48,94.48,0,0,1-25.4,32c-2,1.62-4.09,3.2-6.31,4.72-12.75,8.8-29.3,15.9-50.76,19.75a.82.82,0,0,1-.68-1.42c6.27-5.42,23.63-21.5,28.9-37.59a26.53,26.53,0,0,0,1.35-11.62c-3-22.77,26.63-33.15,26.63-33.15a170.93,170.93,0,0,0,16.25-7.35c7.42-3.87,15.43-8.88,19.37-14.1a.82.82,0,0,1,1.47.47A109.69,109.69,0,0,1,127.53,85.94Z"/><path d="M55.8,61s5.67-7.42,19.35-8.4C75.15,52.55,78.47,62.91,55.8,61Z"/><path class="cls-3" d="M96.66,34.07C78.41,26,48.05,41.81,44.45,43.74c.26,0,.45.81-.35,4.35-1.31,5.74-15.25,25.38-15.25,25.38-1.6-1.67-5.2.91-5.2.91C22.28,77.77,26.94,85,26.94,85c-2.2,9.36,9.61,18.87,9.94,19.14a65.29,65.29,0,0,1-7.76-5.29c-16.31-13-14-26.14-8.55-28.79,2.54-1.22,4.66-3.78,6.35-6.6v0c.52-.87,1-1.76,1.42-2.64q.28-.57.54-1.14a52.85,52.85,0,0,0,2.82-7.71,28,28,0,0,1-2.16-17.07,3.32,3.32,0,0,1,3.63-2.7c4.87.55,8.4,6.08,8.4,6.08,27.06-21,54.76-11.47,54.76-11.47A25.87,25.87,0,0,1,109.21,8.68,3.31,3.31,0,0,1,113,9c-4.22,1.22-9.49,4.44-7.7,13,2.87,13.69,12.42,11.46,12.42,11.46S116.08,42.66,96.66,34.07Z"/><path class="cls-4" d="M22.56,81.05s-1.94,1.42-16.84-4.19c0,0,14.37,2.66,15.42,1.7S22.56,81.05,22.56,81.05Z"/><path class="cls-4" d="M23.65,77.66s-1.94,1.42-16.84-4.19c0,0,14.36,2.65,15.41,1.69S23.65,77.66,23.65,77.66Z"/><path class="cls-1" d="M32.4,63l-1.57.13c-1.36.1-2.66.17-3.9.22.52-.87,1-1.76,1.42-2.64q.28-.57.54-1.14A24,24,0,0,1,32.4,63Z"/><circle class="cls-1" cx="69.28" cy="53.85" r="2.87"/><path class="cls-3" d="M127.53,85.94c5.71-23.9-1.89-29.77-1.89-29.77C123.16,70.45,85.47,92.68,84.89,93a130.84,130.84,0,0,0,32.62-41.65c7.42-3.87,15.43-8.88,19.37-14.1a.82.82,0,0,1,1.47.47A109.69,109.69,0,0,1,127.53,85.94Z"/><path class="cls-3" d="M95.82,122.7c-12.75,8.8-29.3,15.9-50.76,19.75,0,0,24.22-19.7,52.35-39.4C97.41,103.05,104,109.31,95.82,122.7Z"/><polygon class="cls-1" points="67.09 125.03 96.8 93.4 84.27 93.4 120.54 65.22 105.58 86.6 117.68 86.6 67.09 125.03"/><path d="M28.85,73.47s-4.65-3-6.63,1.69,4.71,8.9,4.71,8.9,6.27-2.93,7.33-7.2S28.85,73.47,28.85,73.47Z"/><path class="cls-1" d="M179.27,78.36l-2.85,3a1,1,0,0,0-.26.67V89.9a1,1,0,0,1-1,1h-8.34a1,1,0,0,1-1-1V55.08a1,1,0,0,1,1-1h8.34a1,1,0,0,1,1,1V66.91a1,1,0,0,0,1.69.66l12.26-13.16a1,1,0,0,1,.71-.31h8.8a1,1,0,0,1,.72,1.64l-13,14a1,1,0,0,0,0,1.26L201.42,89.3a1,1,0,0,1-.77,1.57H191a1,1,0,0,1-.77-.37l-9.51-12.08A1,1,0,0,0,179.27,78.36Z"/><path class="cls-1" d="M203.26,53.94c0-3,2.42-5.3,6.1-5.3s6.09,2.15,6.09,5.15-2.42,5.46-6.09,5.46S203.26,56.94,203.26,53.94Zm2.08,8.46h8a1,1,0,0,1,1,1V89.9a1,1,0,0,1-1,1h-8a1,1,0,0,1-1-1V63.38A1,1,0,0,1,205.34,62.4Z"/><path class="cls-1" d="M240.18,88.93a1,1,0,0,1-.5,1.22,14.63,14.63,0,0,1-6.16,1.2c-7.3,0-11.56-3.58-11.56-10.88V71.89a1,1,0,0,0-1-1h-2.2a1,1,0,0,1-1-1v-5.5a1,1,0,0,1,1-1H221a1,1,0,0,0,1-1V57a1,1,0,0,1,1-1h8a1,1,0,0,1,1,1v5.46a1,1,0,0,0,1,1h4.56a1,1,0,0,1,1,1v5.5a1,1,0,0,1-1,1h-4.56a1,1,0,0,0-1,1v8.48c0,2.1,1.21,3.25,3,3.25a5.75,5.75,0,0,0,2.15-.41,1,1,0,0,1,1.27.58Z"/><path class="cls-1" d="M263.08,88.93a1,1,0,0,1-.5,1.22,14.63,14.63,0,0,1-6.16,1.2c-7.3,0-11.55-3.58-11.55-10.88V71.89a1,1,0,0,0-1-1h-2.2a1,1,0,0,1-1-1v-5.5a1,1,0,0,1,1-1h2.2a1,1,0,0,0,1-1V57a1,1,0,0,1,1-1h8a1,1,0,0,1,1,1v5.46a1,1,0,0,0,1,1h4.56a1,1,0,0,1,1,1v5.5a1,1,0,0,1-1,1h-4.56a1,1,0,0,0-1,1v8.48c0,2.1,1.2,3.25,3,3.25a5.75,5.75,0,0,0,2.15-.41,1,1,0,0,1,1.27.58Z"/><path class="cls-1" d="M294.39,79.16H276.07a1,1,0,0,0-.86,1.44c1.15,2,3.36,3.13,6.37,3.13a9,9,0,0,0,5.91-1.93,1,1,0,0,1,1.28.11l4,4.13a1,1,0,0,1-.05,1.41c-2.69,2.57-6.47,3.9-11.43,3.9-10.14,0-16.71-6.26-16.71-14.76s6.67-14.66,15.66-14.66c8.4,0,15.23,5.36,15.23,14.76,0,.47,0,1-.09,1.57A1,1,0,0,1,294.39,79.16Zm-18.65-5.25h9.07a1,1,0,0,0,.92-1.34,6,6,0,0,0-10.9,0A1,1,0,0,0,275.74,73.91Z"/><path class="cls-1" d="M330.38,74.59V89.9a1,1,0,0,1-1,1h-8a1,1,0,0,1-1-1V76.22c0-4.1-1.78-5.83-4.67-5.83-3.21,0-5.68,2-5.68,6.72V89.9a1,1,0,0,1-1,1h-8a1,1,0,0,1-1-1V63.38a1,1,0,0,1,1-1h7.55a1,1,0,0,1,1,1h0a1,1,0,0,0,1.54.79,12.73,12.73,0,0,1,7.5-2.24C325.29,61.93,330.38,65.76,330.38,74.59Z"/><path class="cls-1" d="M336.3,85.62l.43-.85a1.19,1.19,0,0,1,1.77-.42,18.81,18.81,0,0,0,11.05,3.53c6.89,0,9.88-2.89,9.88-6.51,0-10.09-22.64-3.89-22.64-17.5,0-5.41,4.2-10.08,13.55-10.08a21.36,21.36,0,0,1,10.53,2.69,1.18,1.18,0,0,1,.48,1.48l-.4.94a1.16,1.16,0,0,1-1.64.57,18.82,18.82,0,0,0-9-2.37c-6.72,0-9.72,3-9.72,6.67,0,10.08,22.65,4,22.65,17.39,0,5.41-4.31,10-13.72,10-5.08,0-10.08-1.66-13-4.14A1.18,1.18,0,0,1,336.3,85.62Z"/><path class="cls-1" d="M410.36,64.83,400.8,90.11a1.19,1.19,0,0,1-1.1.76h-1.91a1.17,1.17,0,0,1-1.09-.75l-7.34-19a1.17,1.17,0,0,0-2.19,0l-7.33,19a1.18,1.18,0,0,1-1.1.75h-1.9a1.17,1.17,0,0,1-1.1-.76l-9.52-25.28a1.18,1.18,0,0,1,1.1-1.59h1.06a1.18,1.18,0,0,1,1.1.77l7.3,19.76a1.17,1.17,0,0,0,2.2,0L386.46,64a1.17,1.17,0,0,1,1.1-.76h1.58a1.2,1.2,0,0,1,1.1.76l7.43,19.79a1.18,1.18,0,0,0,2.2,0L407.26,64a1.18,1.18,0,0,1,1.1-.77h.9A1.18,1.18,0,0,1,410.36,64.83Z"/><path class="cls-1" d="M436.59,75.15V89.7a1.17,1.17,0,0,1-1.17,1.17H434.2A1.17,1.17,0,0,1,433,89.7h0a1.17,1.17,0,0,0-1.93-.89,11.78,11.78,0,0,1-7.58,2.33c-6.25,0-10.08-3.26-10.08-8,0-4.26,2.73-7.83,10.66-7.83h7.6a1.17,1.17,0,0,0,1.17-1.17v-.51c0-4.73-2.67-7.3-7.82-7.3a14.4,14.4,0,0,0-8.19,2.47,1.18,1.18,0,0,1-1.69-.35l-.45-.75a1.17,1.17,0,0,1,.33-1.58,17.5,17.5,0,0,1,8.66-3A12,12,0,0,1,436.59,75.15Zm-3.73,7.17V79.23a1.17,1.17,0,0,0-1.17-1.17H424.2c-5.36,0-7.1,2.1-7.1,4.93,0,3.21,2.58,5.2,7,5.2,4.11,0,7.17-1.91,8.68-5.38A1.33,1.33,0,0,0,432.86,82.32Z"/><path class="cls-1" d="M474.73,77.06c0,8.4-5.88,14.08-13.76,14.08A12.45,12.45,0,0,1,452.45,88a1.18,1.18,0,0,0-2,.84v11a1.17,1.17,0,0,1-1.17,1.17h-1.38a1.17,1.17,0,0,1-1.18-1.17V64.42a1.18,1.18,0,0,1,1.18-1.18h1.22a1.17,1.17,0,0,1,1.17,1.18v1a1.19,1.19,0,0,0,2,.9A12.38,12.38,0,0,1,461,63C468.85,63,474.73,68.7,474.73,77.06Zm-3.73,0c0-6.41-4.47-10.77-10.3-10.77s-10.29,4.36-10.29,10.77,4.41,10.77,10.29,10.77S471,83.52,471,77.06Z"/></g></g></svg>