<svg xmlns="http://www.w3.org/2000/svg" xmlns:xlink="http://www.w3.org/1999/xlink" viewBox="0 0 114.98 124.24"><defs><style>.cls-1{fill:#2c55ff;}.cls-2{fill:url(#linear-gradient);}.cls-3{fill:url(#linear-gradient-2);}</style><linearGradient id="linear-gradient" x1="50.38" y1="37.29" x2="50.38" y2="121.12" gradientUnits="userSpaceOnUse"><stop offset="0.37" stop-color="#fff"/><stop offset="0.46" stop-color="#fcfdff"/><stop offset="0.54" stop-color="#f2f5ff"/><stop offset="0.6" stop-color="#e2e8ff"/><stop offset="0.66" stop-color="#cbd5ff"/><stop offset="0.72" stop-color="#aebdff"/><stop offset="0.78" stop-color="#89a0ff"/><stop offset="0.83" stop-color="#5e7dff"/><stop offset="0.88" stop-color="#2e56ff"/><stop offset="0.9" stop-color="#1d48ff"/></linearGradient><linearGradient id="linear-gradient-2" x1="24.75" y1="0.15" x2="86.68" y2="101.67" gradientUnits="userSpaceOnUse"><stop offset="0.17" stop-color="#fff"/><stop offset="0.3" stop-color="#fcfdff"/><stop offset="0.4" stop-color="#f2f5ff"/><stop offset="0.49" stop-color="#e2e8ff"/><stop offset="0.57" stop-color="#cbd5ff"/><stop offset="0.65" stop-color="#aebdff"/><stop offset="0.73" stop-color="#89a0ff"/><stop offset="0.8" stop-color="#5e7dff"/><stop offset="0.87" stop-color="#2e56ff"/><stop offset="0.9" stop-color="#1d48ff"/></linearGradient></defs><title>Asset 5</title><g id="Layer_2" data-name="Layer 2"><g id="Layer_2-2" data-name="Layer 2"><path class="cls-1" d="M115,46.68V77.56a30.74,30.74,0,0,1-15.37,26.63L71.29,120.54a27.6,27.6,0,0,1-27.6,0L15.37,104.19A30.74,30.74,0,0,1,0,77.56V46.68A30.75,30.75,0,0,1,10.17,23.83a31.16,31.16,0,0,1,5.2-3.78L43.69,3.7a27.6,27.6,0,0,1,27.6,0L99.61,20.05a31.16,31.16,0,0,1,5.2,3.78A30.75,30.75,0,0,1,115,46.68Z"/><path class="cls-2" d="M61.43,71.22c0,12,19.33,22.42,9.17,27.3a30.29,30.29,0,0,1-43.39-27.3c0-14.41,22.51-40.79,28.71-47.78a2.09,2.09,0,0,1,3.14,0C65.26,30.43,61.43,56.81,61.43,71.22Z"/><path class="cls-3" d="M87.77,71.22A30.26,30.26,0,0,1,70.6,98.52,31.84,31.84,0,0,1,51.07,82.86c-16.66-30.09,8-59.42,8-59.42C65.26,30.43,87.77,56.81,87.77,71.22Z"/></g></g></svg>